<?xml version="1.0" encoding="utf-8"?>
<!-- Generator: Adobe Illustrator 21.0.0, SVG Export Plug-In . SVG Version: 6.00 Build 0)  -->
<svg version="1.1" id="Layer_1" xmlns="http://www.w3.org/2000/svg" xmlns:xlink="http://www.w3.org/1999/xlink" x="0px" y="0px"
	 width="1400px" height="980px" viewBox="0 0 1400 980" style="enable-background:new 0 0 1400 980;" xml:space="preserve">
<style type="text/css">
	.st0{fill-rule:evenodd;clip-rule:evenodd;fill:#ABDBE8;}
	.st1{fill-rule:evenodd;clip-rule:evenodd;fill:#D6ECF3;}
	.st2{fill-rule:evenodd;clip-rule:evenodd;fill:#BDE2EF;}
	.st3{fill-rule:evenodd;clip-rule:evenodd;fill:#DEF1F9;}
	.st4{fill-rule:evenodd;clip-rule:evenodd;fill:#CCE9F4;}
	.st5{fill-rule:evenodd;clip-rule:evenodd;fill:#DAEFF7;}
	.st6{fill-rule:evenodd;clip-rule:evenodd;fill:#9AC220;}
	.st7{fill-rule:evenodd;clip-rule:evenodd;fill:#A37323;}
	.st8{fill-rule:evenodd;clip-rule:evenodd;fill:#A4CB35;}
	.st9{fill-rule:evenodd;clip-rule:evenodd;fill:#83A829;}
	.st10{fill-rule:evenodd;clip-rule:evenodd;fill:#80882D;}
	.st11{fill-rule:evenodd;clip-rule:evenodd;fill:#B18131;}
	.st12{fill-rule:evenodd;clip-rule:evenodd;fill:#B3D253;}
	.st13{fill-rule:evenodd;clip-rule:evenodd;fill:#FFFFFF;}
	.st14{fill-rule:evenodd;clip-rule:evenodd;fill:#F0AD7A;}
	.st15{fill-rule:evenodd;clip-rule:evenodd;fill:#FCD564;}
	.st16{fill-rule:evenodd;clip-rule:evenodd;fill:#DE4949;}
	.st17{fill-rule:evenodd;clip-rule:evenodd;fill:#EA686A;}
	.st18{fill-rule:evenodd;clip-rule:evenodd;fill:#142747;}
	.st19{fill-rule:evenodd;clip-rule:evenodd;fill:#182F58;}
	.st20{fill-rule:evenodd;clip-rule:evenodd;fill:#4C4A68;}
	.st21{fill-rule:evenodd;clip-rule:evenodd;fill:#332E4C;}
	.st22{fill-rule:evenodd;clip-rule:evenodd;fill:#F7C59F;}
	.st23{fill-rule:evenodd;clip-rule:evenodd;fill:#4CA1B2;}
	.st24{fill-rule:evenodd;clip-rule:evenodd;fill:#72C4D6;}
	.st25{fill-rule:evenodd;clip-rule:evenodd;fill:#DEB644;}
	.st26{fill-rule:evenodd;clip-rule:evenodd;fill:#D03C3A;}
	.st27{fill-rule:evenodd;clip-rule:evenodd;fill:#6F1519;}
	.st28{fill-rule:evenodd;clip-rule:evenodd;fill:#981E23;}
	.st29{fill-rule:evenodd;clip-rule:evenodd;fill:#E2AB80;}
	.st30{fill-rule:evenodd;clip-rule:evenodd;fill:#612424;}
	.st31{fill-rule:evenodd;clip-rule:evenodd;fill:#863C3B;}
	.st32{fill-rule:evenodd;clip-rule:evenodd;fill:#F9D4B7;}
</style>
<g>
	<g>
		<rect y="0" class="st0" width="1400" height="877.2"/>
		<rect y="0" class="st1" width="1400" height="250.2"/>
		<rect y="250.2" class="st2" width="1400" height="326.3"/>
		<path class="st3" d="M148.5,250.2h1103C1104.4,120.7,911.4,42.1,700,42.1C488.6,42.1,295.6,120.7,148.5,250.2z"/>
		<g>
			<path class="st4" d="M700,361c-285.1,0-516.1,231.1-516.1,516.1h1032.3C1216.1,592.1,985.1,361,700,361z"/>
			<path class="st5" d="M700,361c-172.9,0-325.9,85-419.5,215.4h839.1C1025.9,446,872.9,361,700,361z"/>
		</g>
	</g>
	<rect y="877.2" class="st6" width="1400" height="102.8"/>
	<g>
		<g>
			<g>
				<path class="st7" d="M1201.3,873.3c-3.7,0-6.7,2.7-6.7,6c0,11.6-5.3,22.2-13.8,29.8c-6.2,5.5-14.1,9.5-23,11.3V814.4
					c0-5.4-4.9-9.8-10.9-9.8c-6,0-10.9,4.4-10.9,9.8v138.5c-8.7-1.8-16.5-5.8-22.7-11.2c-8.5-7.6-13.8-18.1-13.8-29.8
					c0-3.3-3-6-6.7-6c-3.7,0-6.7,2.7-6.7,6c0,14.9,6.8,28.4,17.7,38.2c8.6,7.6,19.7,13,32.1,15v15h21.9v-47.5
					c12.5-1.9,23.8-7.3,32.4-15c10.9-9.8,17.7-23.3,17.7-38.2C1207.9,875.9,1204.9,873.3,1201.3,873.3z"/>
				<ellipse class="st6" cx="1205.2" cy="869.6" rx="28.3" ry="25.3"/>
				<ellipse class="st6" cx="1079.8" cy="894.1" rx="37.4" ry="33.4"/>
			</g>
			<path class="st6" d="M1238.2,572.3c1.7-6.3,2.6-12.8,2.6-19.6c0-46.3-42-83.9-93.9-83.9c-51.9,0-93.9,37.6-93.9,83.9
				c0,6.7,0.9,13.3,2.6,19.6c-55.9,4.5-99.8,46.5-99.8,97.7c0,34.8,20.3,65.4,50.9,82.8c-2,6.4-3.1,13.1-3.1,20.1
				c0,40.6,36.9,73.5,82.4,73.5c24.2,0,45.9-9.3,61-24.1c15.1,14.8,36.8,24.1,61,24.1c45.5,0,82.4-32.9,82.4-73.5
				c0-7-1.1-13.7-3.1-20.1c30.6-17.4,50.9-48,50.9-82.8C1338,618.8,1294.2,576.8,1238.2,572.3z"/>
		</g>
		<g>
			<path class="st6" d="M1041,812c-4.8-2.4-10.9,4.3-13.6,15c-2.7,10.7-1,21.3,3.8,23.7c4.8,2.4,10.9-4.3,13.6-15
				C1047.5,825,1045.8,814.4,1041,812z"/>
			<path class="st6" d="M1041.2,812.7c-5.2-1.7-19.4,2.6-31.7,9.6c-12.3,7-18,14.1-12.7,15.8c5.2,1.7,19.4-2.6,31.7-9.6
				C1040.7,821.5,1046.4,814.4,1041.2,812.7z"/>
		</g>
		<g>
			<path class="st6" d="M1315.1,615.9c-9.4,12.7-13.1,27.2-8.2,32.5c4.9,5.3,16.6-0.8,26-13.5c9.4-12.7,13.1-27.2,8.2-32.5
				C1336.2,597.2,1324.6,603.2,1315.1,615.9z"/>
			<path class="st6" d="M1378.9,634c-5.9-4.5-26.7-5.2-46.5-1.5c-19.8,3.7-31.1,10.4-25.3,15c5.9,4.5,26.7,5.2,46.5,1.5
				C1373.4,645.3,1384.8,638.6,1378.9,634z"/>
		</g>
		<path class="st8" d="M1220.4,593.1c-33,6.8-63.1,29.5-67.3,50.7c-4.2,21.2,19.2,33,52.2,26.2c33-6.8,63.1-29.5,67.3-50.7
			C1276.8,598,1253.4,586.3,1220.4,593.1z"/>
	</g>
	<g>
		<path class="st9" d="M352.4,164.1c-62.8,0-114.2,51.4-114.2,114.2v118.5c0,62.8,51.4,114.2,114.2,114.2
			c62.8,0,114.2-51.4,114.2-114.2V278.3C466.6,215.5,415.2,164.1,352.4,164.1z"/>
		<path class="st10" d="M425.4,433.9H310c-61.2,0-111.3,50.1-111.3,111.3c0,61.2,50.1,111.3,111.3,111.3h115.5
			c61.2,0,111.3-50.1,111.3-111.3C536.7,483.9,486.6,433.9,425.4,433.9z"/>
		<path class="st11" d="M266.6,502.4c-7.7,0-13.9,6.2-13.9,13.9v462.9h27.8v-145V516.3C280.5,508.7,274.3,502.4,266.6,502.4z"/>
		<path class="st6" d="M268.8,268c-56,0-101.8,45.8-101.8,101.8v5.9v7.7c0,14.6-11.9,26.5-26.5,26.5h-1.5h-1.2
			c-56,0-101.8,45.8-101.8,101.8c0,56,45.8,101.8,101.8,101.8h131c56,0,101.8-45.8,101.8-101.8V369.8
			C370.6,313.8,324.8,268,268.8,268z"/>
		<path class="st11" d="M266.6,753.6h-65c-13.2,0-25.2-5.4-33.9-14.1c-8.7-8.7-14.1-20.7-14.1-33.8v-42.3c0-7.7-6.2-13.9-13.9-13.9
			c-7.7,0-13.9,6.2-13.9,13.9v42.3c0,20.8,8.5,39.8,22.2,53.5c13.7,13.7,32.6,22.2,53.5,22.2h65c7.7,0,13.9-6.2,13.9-13.9
			S274.3,753.6,266.6,753.6z"/>
		<path class="st11" d="M393.5,573.4c-7.7,0-13.9,6.2-13.9,13.9v42.3c0,13.2-5.4,25.2-14.1,33.8c-8.7,8.7-20.7,14.1-33.9,14.1h-65
			c-7.7,0-13.9,6.2-13.9,13.9c0,7.7,6.2,13.9,13.9,13.9h65c20.8,0,39.8-8.5,53.5-22.2c13.7-13.7,22.2-32.6,22.2-53.5v-42.3
			C407.4,579.6,401.2,573.4,393.5,573.4z"/>
		<path class="st12" d="M262.6,284.2c-5.4,0-9.8,4.4-9.8,9.8c0,5.4,4.4,9.8,9.8,9.8c20,0,38.3,8.2,51.5,21.4
			c13.2,13.2,21.4,31.4,21.4,51.5c0,5.4,4.4,9.8,9.8,9.8c5.4,0,9.8-4.4,9.8-9.8c0-25.4-10.4-48.6-27.2-65.3
			C311.1,294.6,288,284.2,262.6,284.2z"/>
		<path class="st6" d="M360.4,182.5c-5.8,0-10.4,4.7-10.4,10.4c0,5.8,4.7,10.4,10.4,10.4c19.6,0,37.5,8,50.4,21
			c12.9,12.9,21,30.8,21,50.4c0,5.7,4.7,10.4,10.4,10.4c5.7,0,10.4-4.7,10.4-10.4c0-25.4-10.4-48.4-27.1-65.1
			C408.9,192.9,385.8,182.5,360.4,182.5z"/>
		<path class="st9" d="M416.6,450.4c-5.4,0-9.9,4.4-9.9,9.9c0,5.5,4.4,9.9,9.9,9.9c22.2,0,42.4,9.1,57.1,23.7
			c14.6,14.6,23.7,34.8,23.7,57.1c0,5.4,4.4,9.9,9.9,9.9c5.4,0,9.9-4.4,9.9-9.9c0-27.7-11.3-52.8-29.5-71
			C469.4,461.7,444.2,450.4,416.6,450.4z"/>
		<path class="st6" d="M174.6,632.5h-62.5c-16.8,0-30.6,13.8-30.6,30.6v0c0,16.8,13.8,30.6,30.6,30.6h62.5
			c16.8,0,30.6-13.8,30.6-30.6v0C205.2,646.3,191.5,632.5,174.6,632.5z"/>
	</g>
	<path class="st13" d="M1353.5,368.5c-8.3-10.2-24.2-16.3-46.9-16.3c-30.5,0-66.7,11-98.7,28.2l-17.8,1.5c-4.4-3.2-11.1-5-19.8-5.1
		c-12.5,0-27,3.8-40.5,10l-5.4,0.4c-3.4-4.2-9.9-6.7-19.3-6.7c-12.5,0-27.4,4.5-40.5,11.6l-99.9,8.2l87.1,0h15.2l109.7,0l134.4,0h47
		l41.9,0v-45.8c-11.1,3.6-22.3,7.9-33.2,12.9L1353.5,368.5z"/>
	<g>
		<path class="st13" d="M594.5,78c-83.3,0-150.8,67.5-150.8,150.8c0,83.3,67.5,150.8,150.8,150.8c21.1,0,41.3-4.4,59.5-12.2
			c-7.4,21.3-22.5,36.4-57.7,43.1c45.6,22.2,101.4-7.5,112.8-83.8c22.5-26.3,36.1-60.5,36.1-97.9C745.3,145.5,677.8,78,594.5,78z"/>
		<path class="st13" d="M830.4,127.9c-69.5,0-125.9,56.3-125.9,125.9c0,58.7,40.2,108.1,94.7,122c0.9,51.9,72.7,82.9,102.1,64
			c-43.7-13.2-54.6-34.1-47.8-62.3c58.5-10.8,102.8-62.1,102.8-123.7C956.3,184.2,899.9,127.9,830.4,127.9z"/>
		<g>
			<path class="st14" d="M946.2,572c-23,0-41.6,18.6-41.6,41.6v112.5c0,23,18.6,41.6,41.6,41.6s41.6-18.6,41.6-41.6V613.6
				C987.8,590.6,969.2,572,946.2,572z"/>
			<path class="st15" d="M943.4,511.4c-25.1,0-45.4,20.3-45.4,45.4v56.8l0,0.3h90.8l0-0.3v-56.8
				C988.8,531.7,968.4,511.4,943.4,511.4z"/>
			<path class="st16" d="M285.6,554.3c-11.1,0-20.2,9.1-20.2,20.2v41.9c0,11.1,9.1,20.2,20.2,20.2c11.1,0,20.2-9.1,20.2-20.2v-41.9
				C305.8,563.4,296.7,554.3,285.6,554.3z"/>
			<path class="st17" d="M365.1,456.9c-10.9,0-20.7,4.4-27.9,11.5c-7.1,7.1-11.5,17-11.5,27.9c0,3.1,2.5,5.7,5.7,5.7
				c3.1,0,5.7-2.5,5.7-5.7c0-7.7,3.1-14.8,8.2-19.8c5.1-5.1,12.1-8.2,19.8-8.2c7.7,0,14.8,3.1,19.8,8.2c5.1,5.1,8.2,12.1,8.2,19.8
				c0,3.1,2.5,5.7,5.7,5.7c3.1,0,5.7-2.5,5.7-5.7c0-10.9-4.4-20.7-11.5-27.9C385.8,461.3,376,456.9,365.1,456.9z"/>
			<path class="st17" d="M365.8,481c-50,0-90.9,40.9-90.9,90.9v119.5c0,50,40.9,90.9,90.9,90.9s90.9-40.9,90.9-90.9V571.8
				C456.6,521.8,415.8,481,365.8,481z"/>
			<g>
				<rect x="430.8" y="734.3" class="st18" width="96.8" height="245.7"/>
				<path class="st19" d="M346.3,743.5c0,49.9,40.8,90.7,90.7,90.7c49.9,0,90.7-40.8,90.7-90.7v-9.2H346.3V743.5z"/>
				<rect x="346.3" y="734.3" class="st19" width="96.8" height="245.7"/>
			</g>
			<path class="st14" d="M591.7,621.2l-93.7,72c-18.1,14-21.5,40.1-7.5,58.2c14,18.1,40.1,21.5,58.2,7.5l93.7-72
				c18.1-14,21.5-40.1,7.5-58.2C635.9,610.6,609.9,607.2,591.7,621.2z"/>
			<path class="st14" d="M523.4,572c-23,0-41.6,18.6-41.6,41.6v112.5c0,23,18.6,41.6,41.6,41.6c23,0,41.6-18.6,41.6-41.6V613.6
				C565,590.6,546.4,572,523.4,572z"/>
			<path class="st20" d="M523.4,511.4c-25.1,0-45.4,20.3-45.4,45.4v56.8l0,0.3h90.8l0-0.3v-56.8
				C568.8,531.7,548.5,511.4,523.4,511.4z"/>
			<path class="st21" d="M542.2,340.4L542.2,340.4c-18,0-32.7,14.7-32.7,32.7v22.1c0,18,14.7,32.7,32.7,32.7h0
				c18,0,32.7-14.7,32.7-32.7v-22.1C574.9,355.1,560.2,340.4,542.2,340.4z"/>
			<path class="st20" d="M445,460.8L445,460.8c-54.3,0-98.7,44.4-98.7,98.7v221.1h197.3V559.5C543.7,505.2,499.3,460.8,445,460.8z"
				/>
			<path class="st22" d="M478.4,305.7c-42.2,0-76.7,34.5-76.7,76.7v55.7c0,42.2,34.5,76.7,76.7,76.7c42.2,0,76.7-34.5,76.7-76.7
				v-55.7C555,340.2,520.5,305.7,478.4,305.7z"/>
			<path class="st20" d="M408.4,340.4L408.4,340.4c-18,0-32.7,14.7-32.7,32.7v49.1c0,18,14.7,32.7,32.7,32.7h0
				c18,0,32.7-14.7,32.7-32.7v-49.1C441.1,355.1,426.4,340.4,408.4,340.4z"/>
			<path class="st20" d="M402.4,336.8V375h118.7c21,0,38.2-17.2,38.2-38.2v-38.2H440.6C419.6,298.6,402.4,315.8,402.4,336.8z"/>
			<path class="st20" d="M444.2,320.5L444.2,320.5c-18,0-32.7,14.7-32.7,32.7v30c0,18,14.7,32.7,32.7,32.7h0
				c18,0,32.7-14.7,32.7-32.7v-30C476.9,335.2,462.2,320.5,444.2,320.5z"/>
			<g>
				<circle class="st22" cx="424.8" cy="422" r="23.8"/>
				<circle class="st17" cx="424.8" cy="422" r="11.4"/>
			</g>
			<path class="st22" d="M365.8,572c-23,0-41.6,18.6-41.6,41.6v112.5c0,23,18.6,41.6,41.6,41.6c23,0,41.6-18.6,41.6-41.6V613.6
				C407.5,590.6,388.8,572,365.8,572z"/>
			<path class="st14" d="M367.7,572v97.6c0,22.4,17.6,40.6,39.8,41.6v-97.6C407.5,591.3,389.8,573,367.7,572z"/>
			<path class="st20" d="M365.8,511.4c-25.1,0-45.4,20.3-45.4,45.4v56.8l0,0.3h90.8l0-0.3v-56.8
				C411.2,531.7,390.9,511.4,365.8,511.4z"/>
			<path class="st17" d="M386.7,486.7h-45.1c-8.4,0-15.1,6.8-15.1,15.1c0,8.4,6.8,15.1,15.1,15.1h45.1c8.2,0,15.7,3.4,21.1,8.8
				c5.4,5.4,8.8,12.9,8.8,21.1v137.6c0,8.2-3.4,15.7-8.8,21.1c-5.4,5.4-12.9,8.8-21.1,8.8h-45.1c-8.4,0-15.1,6.8-15.1,15.1
				c0,8.4,6.8,15.1,15.1,15.1h45.1c16.6,0,31.6-6.8,42.5-17.7c10.9-10.9,17.7-26,17.7-42.5V546.9c0-16.6-6.8-31.6-17.7-42.5
				C418.3,493.4,403.3,486.7,386.7,486.7z"/>
			<path class="st22" d="M427.8,618.1l-88.9,76.5c-17.4,14.9-19.5,41.1-4.6,58.6c14.9,17.4,41.1,19.5,58.6,4.6l88.9-76.5
				c17.4-14.9,19.5-41.1,4.6-58.6C471.4,605.2,445.2,603.2,427.8,618.1z"/>
			<path class="st16" d="M250.8,703.8c0,17.2,14.1,31.2,31.2,31.2c17.2,0,31.2-14.1,31.2-31.2V653h-62.5V703.8z"/>
			<path class="st14" d="M637.3,591.6c-27,6-49,32.4-49,58.8c0,26.4,21.9,43,49,37c27-6,49-32.4,49-58.8
				C686.3,602.1,664.3,585.5,637.3,591.6z"/>
			<path class="st14" d="M600.9,583.4L600.9,583.4c-7.4,0-13.5,6.1-13.5,13.5v22.4c0,7.4,6.1,13.5,13.5,13.5h0
				c7.4,0,13.5-6.1,13.5-13.5v-22.4C614.4,589.5,608.3,583.4,600.9,583.4z"/>
			<rect x="941.9" y="734.3" class="st23" width="96.8" height="245.7"/>
			<path class="st24" d="M941.9,743.5c0,49.9,40.8,90.7,90.7,90.7c49.9,0,90.7-40.8,90.7-90.7v-9.2H941.9V743.5z"/>
			<rect x="1026.4" y="734.3" class="st24" width="96.8" height="245.7"/>
			<path class="st14" d="M971.6,693.3l-93.7-72c-18.1-14-44.2-10.7-58.2,7.5c-14,18.1-10.7,44.2,7.5,58.2l93.7,72
				c18.1,14,44.2,10.7,58.2-7.5C993.1,733.3,989.7,707.3,971.6,693.3z"/>
			<path class="st15" d="M1024.6,460.8c-54.3,0-98.7,44.4-98.7,98.7v221.1h197.3V559.5C1123.3,505.2,1078.9,460.8,1024.6,460.8z"/>
			<path class="st25" d="M1039.5,624.9v47.4c0,48.8,36.7,89.4,83.8,95.7V559.5c0-10.3-1.6-20.2-4.5-29.5
				C1073.8,538.1,1039.5,577.7,1039.5,624.9z"/>
			<path class="st22" d="M1103.8,572c-23,0-41.6,18.6-41.6,41.6l-31.8,179.3l77,16.1l38.1-195.3C1145.4,590.6,1126.8,572,1103.8,572
				z"/>
			<path class="st15" d="M1103.8,511.4c-25.1,0-45.4,20.3-45.4,45.4v56.8l0,0.3h90.8l0-0.3v-56.8
				C1149.2,531.7,1128.9,511.4,1103.8,511.4z"/>
			<path class="st14" d="M832.3,591.6c-27-6-49,10.5-49,37c0,26.4,21.9,52.8,49,58.8c27.1,6,49-10.5,49-37
				C881.3,623.9,859.3,597.6,832.3,591.6z"/>
			<path class="st14" d="M868.7,583.4c-7.4,0-13.5,6.1-13.5,13.5v22.4c0,7.4,6.1,13.5,13.5,13.5c7.4,0,13.5-6.1,13.5-13.5v-22.4
				C882.1,589.5,876.1,583.4,868.7,583.4z"/>
			<path class="st26" d="M292.3,703.8c0,13.5-8.7,25.1-20.8,29.4c3.3,1.2,6.8,1.8,10.5,1.8c17.2,0,31.2-14.1,31.2-31.2V653h-20.9
				V703.8z"/>
			<g>
				<path class="st20" d="M511.5,401.9c-2.5-2.5-5.9-4-9.7-4c-3.8,0-7.2,1.5-9.7,4l0,0c-2.5,2.5-4,5.9-4,9.7c0,2.1,1.7,3.8,3.8,3.8
					c2.1,0,3.8-1.7,3.8-3.8c0-1.7,0.7-3.3,1.8-4.4l0,0c1.1-1.1,2.7-1.8,4.4-1.8c1.7,0,3.3,0.7,4.4,1.8l0,0c1.1,1.1,1.8,2.7,1.8,4.4
					c0,2.1,1.7,3.8,3.8,3.8c2.1,0,3.8-1.7,3.8-3.8C515.6,407.8,514,404.4,511.5,401.9L511.5,401.9z"/>
				<path class="st20" d="M548.7,401.9c-2.5-2.5-5.9-4-9.7-4c-3.8,0-7.2,1.5-9.7,4l0,0c-2.5,2.5-4,5.9-4,9.7c0,2.1,1.7,3.8,3.8,3.8
					c2.1,0,3.8-1.7,3.8-3.8c0-1.7,0.7-3.3,1.8-4.4l0,0c1.1-1.1,2.7-1.8,4.4-1.8c1.7,0,3.3,0.7,4.4,1.8l0,0c1.1,1.1,1.8,2.7,1.8,4.4
					c0,2.1,1.7,3.8,3.8,3.8c2.1,0,3.8-1.7,3.8-3.8C552.7,407.8,551.2,404.4,548.7,401.9L548.7,401.9z"/>
			</g>
			<g>
				<circle class="st27" cx="475.1" cy="475.7" r="19.7"/>
				<path class="st13" d="M475.1,456c-7.4,0-13.9,4.1-17.2,10.1h34.5C489,460.1,482.5,456,475.1,456z"/>
				<path class="st28" d="M460.6,473.4c-1.8,0-3.5,0.2-5.1,0.7c0,0.5-0.1,1.1-0.1,1.6c0,10.9,8.8,19.7,19.7,19.7
					c1.8,0,3.5-0.2,5.1-0.7c0-0.5,0.1-1.1,0.1-1.6C480.3,482.2,471.5,473.4,460.6,473.4z"/>
			</g>
			<path class="st14" d="M1009.7,450.2c-23.7,0-48.7,19.2-55.8,42.9c-7.1,23.7,6.4,42.9,30.1,42.9c23.7,0,48.7-19.2,55.8-42.9
				C1046.9,469.4,1033.4,450.2,1009.7,450.2z"/>
			<path class="st22" d="M991.2,305.7c-42.2,0-76.7,34.5-76.7,76.7v55.7c0,42.2,34.5,76.7,76.7,76.7s76.7-34.5,76.7-76.7v-55.7
				C1067.9,340.2,1033.4,305.7,991.2,305.7z"/>
			<path class="st29" d="M1006.5,307.3c-15.8,13.9-25.9,34.5-25.9,57.5c0,41.7,33,75.6,73.8,75.6c4.6,0,9.1-0.4,13.4-1.3
				c0-0.3,0-0.7,0-1v-55.7C1067.9,345.5,1041.4,314.4,1006.5,307.3z"/>
			<path class="st30" d="M1027.6,293.8H887.5v39.8c0,21.9,17.9,39.7,39.7,39.7h140.1v-39.8C1067.4,311.7,1049.5,293.8,1027.6,293.8z
				"/>
			<g>
				<g>
					<circle class="st30" cx="979.3" cy="408.4" r="9.2"/>
					<path class="st31" d="M975.5,402c-1.5,0-3,1.9-3.5,4.2c-0.5,2.3,0.3,4.2,1.8,4.2c1.5,0,3-1.9,3.5-4.2
						C977.8,403.8,977,402,975.5,402z"/>
				</g>
				<g>
					<circle class="st30" cx="931.1" cy="409.1" r="9.2"/>
					<path class="st31" d="M927.3,402.7c-1.5,0-3,1.9-3.5,4.2c-0.5,2.3,0.3,4.2,1.8,4.2c1.5,0,3-1.9,3.5-4.2
						C929.6,404.6,928.8,402.7,927.3,402.7z"/>
				</g>
			</g>
			<path class="st30" d="M914.6,525.2c0,34.5,28.2,62.6,62.6,62.6c34.5,0,62.6-28.2,62.6-62.6V431H914.6V525.2z"/>
			<g>
				<circle class="st22" cx="1050.1" cy="431" r="22.9"/>
				<circle class="st17" cx="1050.2" cy="431" r="10.3"/>
			</g>
			<path class="st27" d="M934.1,482.1c0,14.2,11.7,25.9,25.9,25.9c14.3,0,25.9-11.7,25.9-25.9v-33.7h-51.8V482.1z"/>
			<path class="st28" d="M936.9,493.7c4.3,8.5,13.1,14.3,23.1,14.3c12.2,0,22.5-8.6,25.2-20c-6-3.7-13-5.9-20.6-5.9
				C953.8,482.1,943.9,486.5,936.9,493.7z"/>
			<rect x="934.1" y="448.4" class="st13" width="51.8" height="14"/>
			<path class="st22" d="M430.5,901.6h-25.9c-3.5,0-6.4,2.9-6.4,6.4c0,3.5,2.9,6.4,6.4,6.4h25.9c3.5,0,6.4-2.9,6.4-6.4
				C436.9,904.5,434,901.6,430.5,901.6z"/>
			<path class="st22" d="M430.5,925.7h-25.9c-3.5,0-6.4,2.9-6.4,6.4c0,3.5,2.9,6.4,6.4,6.4h25.9c3.5,0,6.4-2.9,6.4-6.4
				C436.9,928.6,434,925.7,430.5,925.7z"/>
			<path class="st32" d="M423.7,621.6L370,667.8c-10.5,9-11.8,24.8-2.8,35.3c9,10.5,24.8,11.8,35.3,2.8l53.7-46.2
				c10.5-9,11.8-24.8,2.8-35.3C450,613.8,434.2,612.6,423.7,621.6z"/>
			<path class="st32" d="M1113.8,655.2c-12.5-2.4-24.6,5.8-27.1,18.2l-12.4,63.4c-2.4,12.5,5.8,24.6,18.2,27.1
				c12.5,2.4,24.6-5.8,27.1-18.2l12.4-63.4C1134.5,669.8,1126.2,657.7,1113.8,655.2z"/>
		</g>
		<path class="st17" d="M563.4,217.9c-4.1,0-6.1,1-7.5,2.2c-0.1-2.7,0.4-5.3,1.2-7.5c1.3-3.1,3.5-5.6,6.7-6.8
			c1.4-0.6,2.1-2.1,1.5-3.5c-0.6-1.4-2.1-2.1-3.5-1.5c-4.7,1.9-7.9,5.4-9.8,9.9c-1,2.5-1.5,5.2-1.6,8.2c-1.3-0.5-2.9-0.9-5.3-0.9
			c-5.9,0-17,5.2-17,17.6c0,27.3,23.6,32.2,26.2,23.6c2.6,8.6,26.2,3.7,26.2-23.6C580.5,223.2,569.3,217.9,563.4,217.9z"/>
		<path class="st17" d="M870.5,192.9c-4.1,0-6.1,1-7.5,2.2c-0.1-2.7,0.4-5.3,1.2-7.5c1.3-3.1,3.5-5.6,6.7-6.8
			c1.4-0.6,2.1-2.1,1.5-3.5c-0.6-1.4-2.1-2.1-3.5-1.5c-4.7,1.9-7.9,5.4-9.8,9.9c-1,2.5-1.5,5.2-1.6,8.2c-1.3-0.5-3-0.9-5.3-0.9
			c-5.9,0-17,5.2-17,17.6c0,27.3,23.6,32.2,26.2,23.6c2.6,8.6,26.2,3.7,26.2-23.6C887.5,198.2,876.3,192.9,870.5,192.9z"/>
		<path class="st15" d="M647.4,177.1v-12.5c1.9,0.5,3,1.2,4.2,1.6c4.3,3.1,9.2-3.6,4.3-7.1c-2.5-1.8-5.5-2.5-8.5-3.1v-1.6
			c0-6.1-7.8-6.1-7.8,0v1.1c-7.2,1.1-13.8,4.9-14.5,12.6c-1.2,10.8,6.7,13.3,14.5,15v13.9c-3.1-0.6-6-1.8-7.8-3
			c-2.3-1.7-4.9-0.6-6,0.8c-1.2,1.6-1.2,4.7,0.5,6.4c3.6,2.5,7.8,4.3,13.3,4.9v1.1c0,6.1,7.8,6.1,7.8,0v-1.7c8-1.2,14.3-6,14.3-14.5
			C661.7,182,654.6,178.9,647.4,177.1z M639.6,175.3c-3.6-1.2-6-2.5-6-5.5c0-3.6,2.4-5.3,6-5.9V175.3z M647.4,196.9v-11.5
			c3,0.7,4.9,2.5,5.5,4.8C652.9,193.9,650.4,195.7,647.4,196.9z"/>
		<path class="st15" d="M812.9,299.3v-13.1c1.9,0.6,3.2,1.2,4.4,1.7c4.5,3.2,9.6-3.8,4.5-7.5c-2.6-1.9-5.8-2.7-8.9-3.2v-1.7
			c0-6.4-8.1-6.4-8.1,0v1.1c-7.6,1.2-14.5,5.1-15.2,13.2c-1.3,11.4,7,14,15.2,15.8v14.5c-3.2-0.6-6.3-1.9-8.2-3.2
			c-2.4-1.8-5.2-0.6-6.3,0.8c-1.3,1.7-1.3,4.9,0.5,6.8c3.8,2.7,8.1,4.5,14,5.1v1.2c0,6.4,8.1,6.4,8.1,0V329c8.3-1.2,15-6.3,15-15.3
			C827.9,304.5,820.4,301.2,812.9,299.3z M804.7,297.5c-3.8-1.2-6.3-2.6-6.3-5.8c0-3.8,2.5-5.5,6.3-6.2V297.5z M812.9,320.1v-12
			c3.2,0.7,5.1,2.6,5.8,5C818.6,317,816,318.8,812.9,320.1z"/>
		<path class="st20" d="M643,249.6c-9,0-17.2,3.7-23.2,9.6c-5.9,5.9-9.6,14.1-9.6,23.2c0,9,3.7,17.2,9.6,23.2
			c5.9,5.9,14.1,9.6,23.2,9.6c9,0,17.2-3.7,23.2-9.6c5.9-5.9,9.6-14.1,9.6-23.2c0-9-3.7-17.2-9.6-23.2
			C660.2,253.3,652,249.6,643,249.6z M662.6,262.8c0.9,0.9,1.8,2,2.6,3h-1.9c-0.6-1.5-1.4-3-2.2-4.3
			C661.6,261.9,662.1,262.4,662.6,262.8z M661.3,279.8h-5.5c-0.1-3.1-0.3-6.1-0.7-8.9h4.6C660.6,273.7,661.2,276.7,661.3,279.8z
			 M655.7,262.5c0.7,1,1.4,2.2,2,3.4h-3.5c-0.4-2-1-3.9-1.5-5.6c-0.2-0.7-0.5-1.3-0.7-1.9C653.3,259.4,654.6,260.9,655.7,262.5z
			 M638.1,261.8c1.5-4.4,3.3-7.1,4.9-7.1s3.4,2.7,4.9,7.1c0.4,1.2,0.8,2.6,1.1,4h-12.1C637.3,264.4,637.7,263.1,638.1,261.8z
			 M623.4,262.8c0.4-0.5,0.9-0.9,1.4-1.3c-0.8,1.4-1.5,2.8-2.2,4.3h-1.9C621.6,264.8,622.5,263.8,623.4,262.8z M626.2,271h4.6
			c-0.4,2.8-0.6,5.8-0.7,8.9h-5.5C624.8,276.7,625.4,273.7,626.2,271z M617.8,271h3.1c-0.7,2.8-1.2,5.8-1.4,8.9h-4.1
			C615.7,276.7,616.5,273.7,617.8,271z M617.8,293.8c-1.3-2.8-2.1-5.7-2.4-8.9h4.1c0.2,3.1,0.7,6.1,1.4,8.9H617.8z M623.4,302
			c-0.9-0.9-1.8-2-2.6-3h1.9c0.6,1.5,1.4,3,2.2,4.3C624.3,302.8,623.9,302.4,623.4,302z M624.6,284.9h5.5c0.1,3.1,0.3,6.1,0.7,8.9
			h-4.6C625.4,291.1,624.8,288.1,624.6,284.9z M630.2,302.3c-0.7-1-1.4-2.2-2-3.4h3.5c0.4,2,1,3.9,1.5,5.6c0.2,0.7,0.5,1.3,0.7,1.9
			C632.6,305.3,631.4,303.9,630.2,302.3z M633.3,260.2c-0.6,1.7-1.1,3.6-1.5,5.6h-3.5c0.6-1.2,1.3-2.3,2-3.4c1.1-1.6,2.4-3,3.8-4.2
			C633.8,258.9,633.5,259.5,633.3,260.2z M647.9,302.9c-1.5,4.4-3.3,7.1-4.9,7.1s-3.4-2.7-4.9-7.1c-0.4-1.2-0.8-2.6-1.1-4H649
			C648.7,300.4,648.3,301.7,647.9,302.9z M650,293.8h-14c-0.4-2.8-0.7-5.8-0.8-8.9h15.5C650.6,288.1,650.4,291.1,650,293.8z
			 M635.2,279.8c0.1-3.1,0.3-6.1,0.8-8.9h14c0.4,2.8,0.7,5.8,0.8,8.9H635.2z M655.7,302.3c-1.1,1.6-2.4,3-3.8,4.2
			c0.3-0.6,0.5-1.3,0.7-1.9c0.6-1.7,1.1-3.6,1.5-5.6h3.5C657.1,300.1,656.5,301.3,655.7,302.3z M655.1,293.8
			c0.4-2.8,0.6-5.8,0.7-8.9h5.5c-0.2,3.1-0.7,6.1-1.6,8.9H655.1z M662.6,302c-0.4,0.5-0.9,0.9-1.4,1.3c0.8-1.4,1.5-2.8,2.2-4.3h1.9
			C664.4,300,663.5,301,662.6,302z M668.2,293.8H665c0.7-2.8,1.2-5.8,1.4-8.9h4.1C670.3,288.1,669.4,291.1,668.2,293.8z
			 M670.5,279.8h-4.1c-0.2-3.1-0.6-6.1-1.4-8.9h3.1C669.4,273.7,670.3,276.7,670.5,279.8z"/>
		<path class="st20" d="M787,187.3c-6.5,0-12.4,2.6-16.6,6.9c-4.3,4.3-6.9,10.1-6.9,16.6s2.6,12.4,6.9,16.6
			c4.3,4.3,10.1,6.9,16.6,6.9c6.5,0,12.4-2.6,16.6-6.9c4.3-4.3,6.9-10.1,6.9-16.6s-2.6-12.4-6.9-16.6
			C799.4,190,793.5,187.3,787,187.3z M801,196.8c0.7,0.7,1.3,1.4,1.9,2.2h-1.3c-0.5-1.1-1-2.1-1.6-3.1
			C800.4,196.2,800.7,196.5,801,196.8z M800.2,209h-4c-0.1-2.2-0.2-4.4-0.5-6.4h3.3C799.6,204.6,800,206.8,800.2,209z M796.1,196.6
			c0.5,0.8,1,1.6,1.4,2.4h-2.5c-0.3-1.5-0.7-2.8-1.1-4.1c-0.2-0.5-0.3-0.9-0.5-1.4C794.4,194.4,795.3,195.4,796.1,196.6z
			 M783.5,196.1c1.1-3.2,2.3-5.1,3.5-5.1c1.2,0,2.4,2,3.5,5.1c0.3,0.9,0.6,1.8,0.8,2.9h-8.7C782.9,198,783.2,197,783.5,196.1z
			 M772.9,196.8c0.3-0.3,0.7-0.6,1-0.9c-0.6,1-1.1,2-1.6,3.1h-1.3C771.6,198.2,772.3,197.5,772.9,196.8z M774.9,202.6h3.3
			c-0.3,2-0.4,4.2-0.5,6.4h-4C773.9,206.8,774.3,204.6,774.9,202.6z M768.9,202.6h2.3c-0.5,2-0.9,4.2-1,6.4h-2.9
			C767.4,206.8,768,204.6,768.9,202.6z M768.9,219.1c-0.9-2-1.5-4.1-1.7-6.4h2.9c0.1,2.2,0.5,4.4,1,6.4H768.9z M772.9,224.9
			c-0.7-0.7-1.3-1.4-1.9-2.2h1.3c0.5,1.1,1,2.1,1.6,3.1C773.6,225.5,773.3,225.2,772.9,224.9z M773.8,212.7h4
			c0.1,2.2,0.2,4.4,0.5,6.4h-3.3C774.3,217.1,773.9,214.9,773.8,212.7z M777.8,225.1c-0.5-0.8-1-1.6-1.4-2.4h2.5
			c0.3,1.5,0.7,2.8,1.1,4.1c0.2,0.5,0.3,0.9,0.5,1.4C779.6,227.3,778.6,226.3,777.8,225.1z M780,194.9c-0.4,1.2-0.8,2.6-1.1,4.1
			h-2.5c0.4-0.9,0.9-1.7,1.4-2.4c0.8-1.2,1.7-2.2,2.7-3C780.4,194,780.2,194.5,780,194.9z M790.5,225.6c-1.1,3.2-2.3,5.1-3.5,5.1
			c-1.2,0-2.4-2-3.5-5.1c-0.3-0.9-0.6-1.8-0.8-2.9h8.7C791.1,223.8,790.8,224.7,790.5,225.6z M792,219.1h-10c-0.3-2-0.5-4.1-0.5-6.4
			h11.1C792.5,214.9,792.3,217.1,792,219.1z M781.4,209c0.1-2.3,0.3-4.4,0.5-6.4h10c0.3,2,0.5,4.1,0.5,6.4H781.4z M796.1,225.1
			c-0.8,1.2-1.7,2.2-2.7,3c0.2-0.4,0.4-0.9,0.5-1.4c0.4-1.2,0.8-2.6,1.1-4.1h2.5C797.1,223.6,796.7,224.4,796.1,225.1z M795.7,219.1
			c0.3-2,0.4-4.2,0.5-6.4h4c-0.1,2.3-0.5,4.4-1.1,6.4H795.7z M801,224.9c-0.3,0.3-0.7,0.6-1,0.9c0.6-1,1.1-2,1.6-3.1h1.3
			C802.3,223.5,801.7,224.2,801,224.9z M805.1,219.1h-2.3c0.5-2,0.9-4.2,1-6.4h2.9C806.6,214.9,806,217.1,805.1,219.1z M806.8,209
			h-2.9c-0.1-2.2-0.5-4.4-1-6.4h2.3C806,204.6,806.6,206.8,806.8,209z"/>
	</g>
	<path class="st13" d="M294.9,104c-9.3,0-15.9,2.5-19.3,6.7l-5.4-0.4c-13.6-6.2-28-10-40.5-10c-8.7,0-15.4,1.8-19.8,5.1l-17.8-1.5
		c-32-17.2-68.2-28.2-98.7-28.2c-22.7,0-38.6,6.1-46.9,16.3l-13.2-1.1c-10.9-5-22.1-9.3-33.2-12.9v45.8h41.9h47l134.4,0l109.7,0
		l15.2,0l87.1,0l-99.9-8.2C322.3,108.5,307.4,104,294.9,104z"/>
</g>
</svg>
